Coordinates
version=1
nRows=13
nColumns=40
inDegrees=yes

Units are S.I. units (second, meters, Newtons, ...)
Angles are in degrees.

endheader
time	pelvis_tilt	pelvis_list	pelvis_rotation	pelvis_tx	pelvis_ty	pelvis_tz	hip_flexion_r	hip_adduction_r	hip_rotation_r	knee_angle_r	knee_angle_r_beta	ankle_angle_r	subtalar_angle_r	mtp_angle_r	hip_flexion_l	hip_adduction_l	hip_rotation_l	knee_angle_l	knee_angle_l_beta	ankle_angle_l	subtalar_angle_l	mtp_angle_l	lumbar_extension	lumbar_bending	lumbar_rotation	arm_flex_r	arm_add_r	arm_rot_r	elbow_flex_r	pro_sup_r	wrist_flex_r	wrist_dev_r	arm_flex_l	arm_add_l	arm_rot_l	elbow_flex_l	pro_sup_l	wrist_flex_l	wrist_dev_l
     44.00750000	     -4.69569497	     -6.60425422	      4.65448522	      1.04773291	      0.93036123	      0.50402863	      9.43590292	      6.11376732	    -14.66099888	     13.00051833	     13.00051833	     10.78652985	      2.44405666	     -2.57398090	     40.16325680	    -13.77447542	      3.58038788	     62.16142838	     62.16142838	      5.33770483	    -18.94538188	     14.75751152	    -12.53435700	      6.62477661	      2.95977431	     21.49052689	    -18.26578096	     -0.64066971	     86.74527575	     44.48159404	      0.00000000	      0.00000000	     -3.42989661	     -7.60637138	     -1.13934428	     21.94454218	     46.85304169	      0.00000000	      0.00000000
     44.01957143	     -4.85337107	     -6.66200730	      4.74858636	      1.04646725	      0.93047244	      0.50456824	      8.63560920	      6.32023423	    -14.97233977	     12.10781936	     12.10781936	     10.89054981	      3.25270159	     -2.54723268	     41.06053717	    -13.49730973	      3.28962439	     59.14148287	     59.14148287	      5.94472383	    -18.84125590	     15.09449825	    -12.54017541	      6.66655265	      3.10905747	     23.54729383	    -18.17050445	     -0.98448313	     88.81499546	     44.44880131	      0.00000000	      0.00000000	     -4.75061092	     -7.66729613	     -1.01973705	     21.68198329	     46.78212960	      0.00000000	      0.00000000
     44.03164286	     -5.03485355	     -6.69581393	      4.82830862	      1.04524210	      0.93038872	      0.50482888	      7.88712565	      6.44212032	    -15.52025405	     11.30314331	     11.30314331	     11.05178763	      4.46000292	     -2.62567628	     41.75571874	    -13.07204151	      3.13638330	     55.80377341	     55.80377341	      6.24823046	    -18.62215912	     14.88944243	    -12.53089034	      6.70964468	      3.45603488	     25.39237982	    -18.31301057	     -1.29488137	     91.10379690	     44.42590360	      0.00000000	      0.00000000	     -6.22002703	     -7.79976044	     -0.60146916	     22.23834305	     46.61427675	      0.00000000	      0.00000000
     44.04371429	     -5.29141562	     -6.74322221	      4.84140028	      1.04400658	      0.93003896	      0.50504280	      7.33396819	      6.59846354	    -15.63307599	     10.69224998	     10.69224998	     11.20332276	      4.92503600	     -2.62179212	     42.36019337	    -12.59858723	      3.14527256	     52.27680809	     52.27680809	      6.58562786	    -18.13015145	     14.93316365	    -12.38132131	      6.72934661	      3.84582985	     27.48797731	    -18.38327358	     -1.65658900	     92.37974702	     44.41162328	      0.00000000	      0.00000000	     -7.36872030	     -7.81838819	     -0.49355955	     22.07389488	     46.55826935	      0.00000000	      0.00000000
     44.05578571	     -5.34158654	     -6.87906040	      4.91547611	      1.04311670	      0.92977764	      0.50499058	      6.34853103	      6.83980847	    -16.31827607	      9.73662448	      9.73662448	     11.43203133	      6.49832125	     -2.44589691	     42.44466309	    -12.23159336	      3.25490578	     48.31291805	     48.31291805	      5.72833619	    -17.49693127	     11.63561672	    -12.50089503	      6.96244057	      3.83415858	     29.62523649	    -18.06975706	     -1.74013570	     94.32250048	     44.48374011	      0.00000000	      0.00000000	     -9.75903689	     -8.44397220	      2.91082046	     24.62697889	     45.71983260	      0.00000000	      0.00000000
     44.06785714	     -5.60072519	     -6.95994011	      4.86433082	      1.04214965	      0.92906199	      0.50490929	      5.81106158	      6.99939853	    -16.46247734	      9.19530919	      9.19530919	     11.63572136	      7.11959175	     -2.52038123	     42.69882944	    -11.82958303	      3.39931550	     44.52360265	     44.52360265	      6.20866676	    -16.10152804	     11.79329937	    -12.28814068	      7.07164823	      4.29895880	     31.58742665	    -18.17573986	     -2.03088399	     95.44403998	     44.47134392	      0.00000000	      0.00000000	    -10.83074209	     -8.41379711	      3.04884678	     24.52214784	     45.67039338	      0.00000000	      0.00000000
     44.07992857	     -5.60521144	     -7.19058035	      4.86865652	      1.04164413	      0.92845392	      0.50465432	      4.81049307	      7.31835433	    -17.25909287	      8.36978418	      8.36978418	     11.95844121	      8.93646788	     -2.24958947	     42.49035947	    -11.65969557	      3.58088173	     40.56036269	     40.56036269	      6.05807367	    -14.47972720	     10.11765888	    -12.35418300	      7.39230936	      4.41740662	     33.57928158	    -17.88623264	     -1.99966680	     96.89375087	     44.55547136	      0.00000000	      0.00000000	    -13.12702091	     -9.17485085	      6.96539836	     27.32692896	     44.94513094	      0.00000000	      0.00000000
     44.09200000	     -5.75366405	     -7.31451871	      4.74755391	      1.04112934	      0.92757687	      0.50441050	      4.14391144	      7.51814506	    -17.37357566	      7.87029551	      7.87029551	     12.21619146	      9.65620598	     -2.36340268	     42.28178355	    -11.48627285	      3.58086620	     36.72310379	     36.72310379	      6.53012419	    -12.61412067	     10.48414499	    -12.24862828	      7.55493869	      4.90358811	     35.41014633	    -17.92186977	     -2.24228152	     97.91490540	     44.54478945	      0.00000000	      0.00000000	    -14.20741768	     -9.13291534	      7.10428711	     27.30985003	     44.90714572	      0.00000000	      0.00000000
     44.10407143	     -5.72886105	     -7.58504037	      4.65264991	      1.04107084	      0.92665994	      0.50405717	      3.13895965	      7.89772434	    -17.83681186	      7.13093253	      7.13093253	     12.45008029	     11.05484793	     -2.37942086	     41.86768174	    -11.55508478	      3.46034282	     33.15901819	     33.15901819	      7.09467599	    -10.55041495	     11.00497708	    -12.27070106	      7.90921949	      5.20127556	     37.15477829	    -17.69661584	     -2.35338224	     99.10001248	     44.53065329	      0.00000000	      0.00000000	    -15.59818702	     -9.12473069	      7.41377319	     28.07010343	     44.83491426	      0.00000000	      0.00000000
     44.11614286	     -5.76535912	     -7.82312329	      4.48492204	      1.04119788	      0.92548582	      0.50361119	      2.27730031	      8.19585720	    -18.23758829	      6.59567688	      6.59567688	     12.83461778	     12.42276508	     -2.22440280	     41.43680273	    -11.64652801	      3.14550873	     29.91284697	     29.91284697	      7.68860925	     -8.84914578	     12.13732538	    -12.18877690	      8.20560168	      5.44142206	     38.95485754	    -17.44670920	     -2.31258794	     99.87518560	     44.53540803	      0.00000000	      0.00000000	    -17.35889839	     -9.33093255	      8.09941053	     29.85943556	     44.70515451	      0.00000000	      0.00000000
     44.12821429	     -5.91792338	     -8.18254497	      4.24307514	      1.04140672	      0.92393166	      0.50319234	      1.76205553	      8.58871190	    -18.07212423	      6.47355353	      6.47355353	     13.22929785	     12.72445583	     -2.36825228	     41.08332421	    -11.85039762	      2.82112281	     26.98187674	     26.98187674	      7.77367248	     -7.92923134	     12.80501346	    -11.89126330	      8.63813164	      6.02791409	     40.43731090	    -17.55110020	     -2.48639212	    100.32546731	     44.53577349	      0.00000000	      0.00000000	    -18.30867158	     -9.18801014	      8.22745993	     29.87147711	     44.67323248	      0.00000000	      0.00000000
     44.14028571	     -5.85913762	     -8.22137185	      3.97756749	      1.04208255	      0.92277219	      0.50251384	      0.82914805	      8.66198647	    -17.87711978	      6.10821496	      6.10821496	     13.66873231	     13.25975539	     -2.39184979	     40.25726926	    -11.85661477	      1.94412026	     24.33664597	     24.33664597	      7.91681919	     -7.17350334	     13.65259951	    -11.85694040	      8.69863195	      6.34997966	     41.89177901	    -17.27282593	     -2.47954373	    100.90386156	     44.52836671	      0.00000000	      0.00000000	    -19.31856821	     -9.15022789	      8.44470373	     30.30831618	     44.62731178	      0.00000000	      0.00000000
     44.15235714	     -5.94352600	     -8.58745823	      3.62584318	      1.04291986	      0.92106698	      0.50199810	      0.17116139	      9.03707319	    -17.61628031	      5.97038075	      5.97038075	     14.07877501	     13.71525605	     -2.48282204	     39.89736678	    -12.19498633	      1.12760395	     22.64817859	     22.64817859	      7.87021010	     -6.98926793	     14.26202649	    -11.56004318	      9.08635007	      6.81554624	     43.03437331	    -17.17119887	     -2.53770590	    101.28851904	     44.52539079	      0.00000000	      0.00000000	    -20.39328627	     -9.02459383	      8.57727862	     30.46087122	     44.59235863	      0.00000000	      0.00000000
